{"glyphs":{"0":{"ha":1111,"x_min":0,"x_max":972,"o":"m 833 277 l 833 555 l 555 555 l 555 416 l 416 416 l 416 555 l 138 555 l 138 277 l 277 277 l 277 416 l 416 416 l 416 277 l 833 277 m 0 0 l 0 833 l 972 833 l 972 0 l 0 0 z "},"1":{"ha":694,"x_min":0,"x_max":555,"o":"m 138 0 l 138 555 l 0 555 l 0 694 l 138 694 l 138 833 l 555 833 l 555 0 l 138 0 z "},"2":{"ha":1250,"x_min":0,"x_max":1111,"o":"m 0 0 l 0 277 l 277 277 l 277 416 l 555 416 l 555 555 l 694 555 l 694 694 l 416 694 l 416 555 l 0 555 l 0 833 l 1111 833 l 1111 416 l 694 416 l 694 277 l 416 277 l 416 138 l 833 138 l 833 277 l 1111 277 l 1111 0 l 0 0 z "},"3":{"ha":1111,"x_min":0,"x_max":972,"o":"m 0 0 l 0 277 l 277 277 l 277 138 l 833 138 l 833 277 l 416 277 l 416 416 l 833 416 l 833 555 l 277 555 l 277 416 l 0 416 l 0 694 l 138 694 l 138 833 l 972 833 l 972 0 l 0 0 z "},"4":{"ha":1111,"x_min":0,"x_max":972,"o":"m 694 555 l 694 694 l 277 694 l 277 555 l 694 555 m 555 0 l 555 277 l 0 277 l 0 694 l 138 694 l 138 833 l 833 833 l 833 555 l 972 555 l 972 277 l 833 277 l 833 0 l 555 0 z "},"5":{"ha":1111,"x_min":0,"x_max":972,"o":"m 0 0 l 0 277 l 277 277 l 277 138 l 694 138 l 694 277 l 416 277 l 416 416 l 0 416 l 0 833 l 972 833 l 972 694 l 277 694 l 277 555 l 972 555 l 972 138 l 833 138 l 833 0 l 0 0 z "},"6":{"ha":1111,"x_min":0,"x_max":972,"o":"m 694 277 l 694 416 l 138 416 l 138 277 l 694 277 m 0 0 l 0 833 l 277 833 l 277 555 l 972 555 l 972 138 l 833 138 l 833 0 l 0 0 z "},"7":{"ha":1111,"x_min":0,"x_max":972,"o":"m 416 0 l 416 277 l 555 277 l 555 416 l 694 416 l 694 694 l 277 694 l 277 555 l 0 555 l 0 833 l 972 833 l 972 416 l 833 416 l 833 138 l 694 138 l 694 0 l 416 0 z "},"8":{"ha":1111,"x_min":0,"x_max":972,"o":"m 694 138 l 694 277 l 277 277 l 277 138 l 694 138 m 694 416 l 694 555 l 277 555 l 277 416 l 694 416 m 0 0 l 0 277 l 138 277 l 138 416 l 0 416 l 0 833 l 972 833 l 972 416 l 833 416 l 833 277 l 972 277 l 972 0 l 0 0 z "},"9":{"ha":1111,"x_min":0,"x_max":972,"o":"m 694 555 l 694 694 l 277 694 l 277 555 l 694 555 m 0 0 l 0 277 l 694 277 l 694 138 l 833 138 l 833 416 l 0 416 l 0 694 l 138 694 l 138 833 l 972 833 l 972 0 l 0 0 z "}," ":{"ha":486,"x_min":0,"x_max":0,"o":""},"!":{"ha":555,"x_min":0,"x_max":416,"o":"m 0 0 l 0 138 l 416 138 l 416 0 l 0 0 m 0 277 l 0 833 l 416 833 l 416 277 l 0 277 z "},"\"":{"ha":833,"x_min":0,"x_max":694,"o":"m 0 555 l 0 833 l 277 833 l 277 555 l 0 555 m 416 555 l 416 833 l 694 833 l 694 555 l 416 555 z "},"#":{"ha":1111,"x_min":0,"x_max":972,"o":"m 694 416 l 694 555 l 277 555 l 277 416 l 694 416 m 138 0 l 138 138 l 0 138 l 0 416 l 138 416 l 138 555 l 0 555 l 0 694 l 138 694 l 138 833 l 277 833 l 277 694 l 694 694 l 694 833 l 833 833 l 833 694 l 972 694 l 972 555 l 833 555 l 833 416 l 972 416 l 972 138 l 833 138 l 833 0 l 694 0 l 694 138 l 277 138 l 277 0 l 138 0 z "},"$":{"ha":1111,"x_min":0,"x_max":972,"o":"m 555 277 l 555 416 l 416 416 l 416 277 l 555 277 m 833 277 l 833 416 l 694 416 l 694 277 l 833 277 m 277 555 l 277 694 l 138 694 l 138 555 l 277 555 m 555 555 l 555 694 l 416 694 l 416 555 l 555 555 m 0 0 l 0 277 l 277 277 l 277 416 l 0 416 l 0 833 l 972 833 l 972 694 l 694 694 l 694 555 l 972 555 l 972 0 l 0 0 z "},"%":{"ha":1111,"x_min":0,"x_max":972,"o":"m 694 0 l 694 277 l 972 277 l 972 0 l 694 0 m 0 555 l 0 833 l 277 833 l 277 555 l 0 555 m 0 0 l 0 416 l 138 416 l 138 277 l 277 277 l 277 416 l 416 416 l 416 555 l 555 555 l 555 694 l 694 694 l 694 833 l 972 833 l 972 416 l 833 416 l 833 555 l 694 555 l 694 416 l 555 416 l 555 277 l 416 277 l 416 138 l 277 138 l 277 0 l 0 0 z "},"'":{"ha":416,"x_min":0,"x_max":277,"o":"m 0 555 l 0 833 l 138 833 l 138 972 l 277 972 l 277 555 l 0 555 z "},"(":{"ha":555,"x_min":0,"x_max":416,"o":"m 138 -138 l 138 0 l 0 0 l 0 833 l 138 833 l 138 972 l 416 972 l 416 694 l 138 694 l 138 138 l 416 138 l 416 -138 l 138 -138 z "},")":{"ha":694,"x_min":138,"x_max":555,"o":"m 138 -138 l 138 138 l 416 138 l 416 694 l 138 694 l 138 972 l 416 972 l 416 833 l 555 833 l 555 0 l 416 0 l 416 -138 l 138 -138 z "},"*":{"ha":555,"x_min":0,"x_max":416,"o":"m 138 416 l 138 555 l 277 555 l 277 416 l 138 416 m 0 555 l 0 694 l 138 694 l 138 555 l 0 555 m 277 555 l 277 694 l 416 694 l 416 555 l 277 555 m 138 694 l 138 833 l 277 833 l 277 694 l 138 694 z "},"+":{"ha":833,"x_min":0,"x_max":694,"o":"m 277 0 l 277 277 l 0 277 l 0 555 l 277 555 l 277 833 l 416 833 l 416 555 l 694 555 l 694 277 l 416 277 l 416 0 l 277 0 z "},",":{"ha":416,"x_min":0,"x_max":277,"o":"m 138 -138 l 138 0 l 0 0 l 0 277 l 277 277 l 277 -138 l 138 -138 z "},"-":{"ha":833,"x_min":0,"x_max":694,"o":"m 0 277 l 0 555 l 694 555 l 694 277 l 0 277 z "},".":{"ha":416,"x_min":0,"x_max":277,"o":"m 0 0 l 0 277 l 277 277 l 277 0 l 0 0 z "},"/":{"ha":972,"x_min":0,"x_max":833,"o":"m 0 0 l 0 277 l 138 277 l 138 416 l 277 416 l 277 555 l 416 555 l 416 694 l 555 694 l 555 972 l 833 972 l 833 694 l 694 694 l 694 555 l 555 555 l 555 416 l 416 416 l 416 277 l 277 277 l 277 0 l 0 0 z "},":":{"ha":416,"x_min":0,"x_max":277,"o":"m 0 0 l 0 277 l 277 277 l 277 0 l 0 0 m 0 416 l 0 694 l 277 694 l 277 416 l 0 416 z "},";":{"ha":416,"x_min":0,"x_max":277,"o":"m 138 -138 l 138 0 l 0 0 l 0 277 l 277 277 l 277 -138 l 138 -138 m 0 416 l 0 694 l 277 694 l 277 416 l 0 416 z "},"<":{"ha":833,"x_min":0,"x_max":694,"o":"m 138 0 l 138 138 l 0 138 l 0 416 l 138 416 l 138 555 l 694 555 l 694 416 l 277 416 l 277 138 l 694 138 l 694 0 l 138 0 z "},"=":{"ha":833,"x_min":0,"x_max":694,"o":"m 0 138 l 0 277 l 694 277 l 694 138 l 0 138 m 0 416 l 0 555 l 694 555 l 694 416 l 0 416 z "},">":{"ha":833,"x_min":0,"x_max":694,"o":"m 0 0 l 0 138 l 416 138 l 416 416 l 0 416 l 0 555 l 555 555 l 555 416 l 694 416 l 694 138 l 555 138 l 555 0 l 0 0 z "},"?":{"ha":1111,"x_min":0,"x_max":972,"o":"m 277 0 l 277 138 l 694 138 l 694 0 l 277 0 m 277 277 l 277 416 l 833 416 l 833 555 l 0 555 l 0 833 l 972 833 l 972 277 l 277 277 z "},"@":{"ha":1111,"x_min":0,"x_max":972,"o":"m 0 0 l 0 833 l 972 833 l 972 277 l 277 277 l 277 555 l 555 555 l 555 416 l 694 416 l 694 694 l 138 694 l 138 277 l 277 277 l 277 138 l 972 138 l 972 0 l 0 0 z "},"A":{"ha":1111,"x_min":0,"x_max":972,"o":"m 833 694 l 833 833 l 138 833 l 138 694 l 833 694 m 0 0 l 0 1111 l 972 1111 l 972 0 l 555 0 l 555 277 l 694 277 l 694 555 l 277 555 l 277 277 l 416 277 l 416 0 l 0 0 z "},"B":{"ha":1111,"x_min":0,"x_max":972,"o":"m 694 277 l 694 555 l 138 555 l 138 277 l 694 277 m 694 694 l 694 833 l 138 833 l 138 694 l 694 694 m 0 0 l 0 1111 l 833 1111 l 833 972 l 972 972 l 972 694 l 833 694 l 833 555 l 972 555 l 972 0 l 0 0 z "},"C":{"ha":1111,"x_min":0,"x_max":972,"o":"m 0 0 l 0 972 l 138 972 l 138 1111 l 833 1111 l 833 972 l 972 972 l 972 694 l 694 694 l 694 833 l 138 833 l 138 416 l 277 416 l 277 277 l 694 277 l 694 416 l 972 416 l 972 138 l 833 138 l 833 0 l 0 0 z "},"D":{"ha":1111,"x_min":0,"x_max":972,"o":"m 694 277 l 694 416 l 833 416 l 833 694 l 694 694 l 694 833 l 277 833 l 277 277 l 694 277 m 0 0 l 0 1111 l 833 1111 l 833 972 l 972 972 l 972 0 l 0 0 z "},"E":{"ha":1111,"x_min":0,"x_max":972,"o":"m 0 0 l 0 1111 l 972 1111 l 972 694 l 694 694 l 694 833 l 277 833 l 277 694 l 694 694 l 694 555 l 277 555 l 277 277 l 694 277 l 694 416 l 972 416 l 972 0 l 0 0 z "},"F":{"ha":1111,"x_min":0,"x_max":972,"o":"m 0 0 l 0 1111 l 972 1111 l 972 694 l 694 694 l 694 833 l 277 833 l 277 694 l 694 694 l 694 555 l 277 555 l 277 0 l 0 0 z "},"G":{"ha":1111,"x_min":0,"x_max":972,"o":"m 0 0 l 0 972 l 138 972 l 138 1111 l 972 1111 l 972 833 l 277 833 l 277 277 l 833 277 l 833 555 l 694 555 l 694 416 l 416 416 l 416 694 l 972 694 l 972 0 l 0 0 z "},"H":{"ha":1111,"x_min":0,"x_max":972,"o":"m 0 0 l 0 1111 l 277 1111 l 277 694 l 694 694 l 694 1111 l 972 1111 l 972 0 l 555 0 l 555 277 l 694 277 l 694 555 l 277 555 l 277 277 l 416 277 l 416 0 l 0 0 z "},"I":{"ha":416,"x_min":0,"x_max":277,"o":"m 0 0 l 0 1111 l 277 1111 l 277 0 l 0 0 z "},"J":{"ha":1111,"x_min":0,"x_max":972,"o":"m 138 0 l 138 138 l 0 138 l 0 416 l 277 416 l 277 277 l 555 277 l 555 416 l 833 416 l 833 694 l 694 694 l 694 833 l 277 833 l 277 694 l 0 694 l 0 1111 l 972 1111 l 972 138 l 833 138 l 833 0 l 138 0 z "},"K":{"ha":1111,"x_min":0,"x_max":972,"o":"m 694 0 l 694 277 l 555 277 l 555 416 l 972 416 l 972 0 l 694 0 m 416 416 l 416 555 l 555 555 l 555 416 l 416 416 m 0 0 l 0 1111 l 277 1111 l 277 833 l 555 833 l 555 972 l 694 972 l 694 1111 l 972 1111 l 972 833 l 694 833 l 694 694 l 416 694 l 416 555 l 277 555 l 277 0 l 0 0 z "},"L":{"ha":833,"x_min":0,"x_max":694,"o":"m 0 0 l 0 1111 l 277 1111 l 277 138 l 416 138 l 416 277 l 694 277 l 694 0 l 0 0 z "},"M":{"ha":1250,"x_min":0,"x_max":1111,"o":"m 0 0 l 0 1111 l 972 1111 l 972 972 l 1111 972 l 1111 0 l 694 0 l 694 277 l 833 277 l 833 972 l 694 972 l 694 694 l 416 694 l 416 972 l 277 972 l 277 277 l 416 277 l 416 0 l 0 0 z "},"N":{"ha":1111,"x_min":0,"x_max":972,"o":"m 0 0 l 0 1111 l 277 1111 l 277 972 l 416 972 l 416 833 l 555 833 l 555 694 l 694 694 l 694 1111 l 972 1111 l 972 0 l 694 0 l 694 416 l 555 416 l 555 555 l 416 555 l 416 694 l 277 694 l 277 277 l 416 277 l 416 0 l 0 0 z "},"O":{"ha":1250,"x_min":0,"x_max":1111,"o":"m 833 277 l 833 416 l 972 416 l 972 694 l 833 694 l 833 833 l 277 833 l 277 694 l 138 694 l 138 416 l 277 416 l 277 277 l 833 277 m 138 0 l 138 138 l 0 138 l 0 972 l 138 972 l 138 1111 l 972 1111 l 972 972 l 1111 972 l 1111 138 l 972 138 l 972 0 l 138 0 z "},"P":{"ha":1111,"x_min":0,"x_max":972,"o":"m 694 694 l 694 972 l 277 972 l 277 694 l 694 694 m 0 0 l 0 1111 l 972 1111 l 972 694 l 833 694 l 833 555 l 277 555 l 277 277 l 416 277 l 416 0 l 0 0 z "},"Q":{"ha":1250,"x_min":0,"x_max":1111,"o":"m 972 138 l 972 416 l 833 416 l 833 138 l 972 138 m 694 277 l 694 555 l 972 555 l 972 694 l 833 694 l 833 833 l 277 833 l 277 694 l 138 694 l 138 416 l 277 416 l 277 277 l 694 277 m 138 0 l 138 138 l 0 138 l 0 972 l 138 972 l 138 1111 l 972 1111 l 972 972 l 1111 972 l 1111 0 l 138 0 z "},"R":{"ha":1111,"x_min":0,"x_max":972,"o":"m 833 694 l 833 833 l 277 833 l 277 694 l 833 694 m 0 0 l 0 1111 l 833 1111 l 833 972 l 972 972 l 972 555 l 833 555 l 833 416 l 972 416 l 972 0 l 694 0 l 694 555 l 277 555 l 277 0 l 0 0 z "},"S":{"ha":1111,"x_min":0,"x_max":972,"o":"m 0 0 l 0 277 l 833 277 l 833 416 l 0 416 l 0 972 l 138 972 l 138 1111 l 833 1111 l 833 972 l 972 972 l 972 833 l 138 833 l 138 694 l 833 694 l 833 555 l 972 555 l 972 138 l 833 138 l 833 0 l 0 0 z "},"T":{"ha":1250,"x_min":0,"x_max":1111,"o":"m 416 0 l 416 833 l 277 833 l 277 694 l 0 694 l 0 1111 l 1111 1111 l 1111 694 l 833 694 l 833 833 l 555 833 l 555 694 l 694 694 l 694 0 l 416 0 z "},"U":{"ha":1111,"x_min":0,"x_max":972,"o":"m 0 0 l 0 1111 l 277 1111 l 277 277 l 416 277 l 416 138 l 694 138 l 694 1111 l 972 1111 l 972 0 l 0 0 z "},"V":{"ha":1250,"x_min":0,"x_max":1111,"o":"m 416 0 l 416 138 l 277 138 l 277 277 l 833 277 l 833 138 l 694 138 l 694 0 l 416 0 m 138 277 l 138 416 l 0 416 l 0 1111 l 277 1111 l 277 277 l 138 277 m 833 277 l 833 1111 l 1111 1111 l 1111 416 l 972 416 l 972 277 l 833 277 z "},"W":{"ha":1250,"x_min":0,"x_max":1111,"o":"m 138 277 l 138 416 l 0 416 l 0 1111 l 416 1111 l 416 833 l 277 833 l 277 277 l 138 277 m 416 0 l 416 138 l 277 138 l 277 277 l 555 277 l 555 694 l 833 694 l 833 277 l 972 277 l 972 833 l 833 833 l 833 1111 l 1111 1111 l 1111 138 l 972 138 l 972 0 l 416 0 z "},"X":{"ha":1250,"x_min":0,"x_max":1111,"o":"m 0 0 l 0 277 l 277 277 l 277 416 l 416 416 l 416 138 l 277 138 l 277 0 l 0 0 m 833 0 l 833 138 l 694 138 l 694 416 l 833 416 l 833 277 l 1111 277 l 1111 0 l 833 0 m 416 416 l 416 694 l 694 694 l 694 416 l 416 416 m 277 694 l 277 833 l 0 833 l 0 1111 l 277 1111 l 277 972 l 416 972 l 416 694 l 277 694 m 694 694 l 694 972 l 833 972 l 833 1111 l 1111 1111 l 1111 833 l 833 833 l 833 694 l 694 694 z "},"Y":{"ha":1111,"x_min":0,"x_max":972,"o":"m 416 0 l 416 277 l 694 277 l 694 555 l 0 555 l 0 1111 l 277 1111 l 277 833 l 138 833 l 138 694 l 694 694 l 694 1111 l 972 1111 l 972 138 l 833 138 l 833 0 l 416 0 z "},"Z":{"ha":1111,"x_min":0,"x_max":972,"o":"m 0 0 l 0 555 l 416 555 l 416 694 l 555 694 l 555 416 l 138 416 l 138 277 l 694 277 l 694 416 l 972 416 l 972 0 l 0 0 m 555 694 l 555 833 l 694 833 l 694 972 l 277 972 l 277 833 l 0 833 l 0 1111 l 972 1111 l 972 694 l 555 694 z "},"[":{"ha":555,"x_min":0,"x_max":416,"o":"m 0 -138 l 0 972 l 416 972 l 416 694 l 138 694 l 138 138 l 416 138 l 416 -138 l 0 -138 z "},"\\":{"ha":972,"x_min":0,"x_max":833,"o":"m 555 0 l 555 277 l 416 277 l 416 416 l 277 416 l 277 555 l 138 555 l 138 694 l 0 694 l 0 972 l 277 972 l 277 694 l 416 694 l 416 555 l 555 555 l 555 416 l 694 416 l 694 277 l 833 277 l 833 0 l 555 0 z "},"]":{"ha":555,"x_min":0,"x_max":416,"o":"m 0 -138 l 0 138 l 277 138 l 277 694 l 0 694 l 0 972 l 416 972 l 416 -138 l 0 -138 z "},"^":{"ha":833,"x_min":0,"x_max":694,"o":"m 0 694 l 0 833 l 138 833 l 138 972 l 277 972 l 277 694 l 0 694 m 416 694 l 416 972 l 555 972 l 555 833 l 694 833 l 694 694 l 416 694 m 277 972 l 277 1111 l 416 1111 l 416 972 l 277 972 z "},"_":{"ha":1111,"x_min":0,"x_max":972,"o":"m 0 0 l 0 138 l 972 138 l 972 0 l 0 0 z "},"`":{"ha":555,"x_min":0,"x_max":416,"o":"m 138 833 l 138 972 l 0 972 l 0 1111 l 277 1111 l 277 972 l 416 972 l 416 833 l 138 833 z "},"a":{"ha":1111,"x_min":0,"x_max":972,"o":"m 694 277 l 694 416 l 138 416 l 138 277 l 694 277 m 0 0 l 0 555 l 138 555 l 138 694 l 833 694 l 833 277 l 972 277 l 972 0 l 694 0 l 694 138 l 555 138 l 555 0 l 0 0 z "},"b":{"ha":1111,"x_min":0,"x_max":972,"o":"m 833 277 l 833 416 l 277 416 l 277 277 l 833 277 m 0 0 l 0 1111 l 277 1111 l 277 833 l 138 833 l 138 694 l 972 694 l 972 138 l 833 138 l 833 0 l 0 0 z "},"c":{"ha":1111,"x_min":0,"x_max":972,"o":"m 0 0 l 0 694 l 972 694 l 972 416 l 277 416 l 277 555 l 138 555 l 138 277 l 972 277 l 972 138 l 833 138 l 833 0 l 0 0 z "},"d":{"ha":1111,"x_min":0,"x_max":972,"o":"m 833 277 l 833 416 l 138 416 l 138 277 l 833 277 m 0 0 l 0 555 l 138 555 l 138 694 l 833 694 l 833 833 l 694 833 l 694 1111 l 972 1111 l 972 138 l 833 138 l 833 0 l 0 0 z "},"e":{"ha":1111,"x_min":0,"x_max":972,"o":"m 694 416 l 694 555 l 277 555 l 277 416 l 694 416 m 0 0 l 0 555 l 138 555 l 138 694 l 972 694 l 972 416 l 833 416 l 833 277 l 277 277 l 277 138 l 972 138 l 972 0 l 0 0 z "},"f":{"ha":1111,"x_min":0,"x_max":972,"o":"m 0 0 l 0 694 l 138 694 l 138 833 l 972 833 l 972 555 l 277 555 l 277 416 l 833 416 l 833 138 l 555 138 l 555 277 l 277 277 l 277 0 l 0 0 z "},"g":{"ha":972,"x_min":0,"x_max":833,"o":"m 555 0 l 555 138 l 416 138 l 416 0 l 555 0 m 694 277 l 694 416 l 138 416 l 138 277 l 694 277 m 277 -277 l 277 0 l 0 0 l 0 555 l 138 555 l 138 694 l 833 694 l 833 -277 l 277 -277 z "},"h":{"ha":1111,"x_min":0,"x_max":972,"o":"m 0 0 l 0 1111 l 277 1111 l 277 833 l 138 833 l 138 694 l 833 694 l 833 555 l 972 555 l 972 0 l 694 0 l 694 277 l 833 277 l 833 416 l 138 416 l 138 277 l 277 277 l 277 0 l 0 0 z "},"i":{"ha":555,"x_min":0,"x_max":416,"o":"m 0 0 l 0 416 l 416 416 l 416 0 l 0 0 m 0 555 l 0 694 l 416 694 l 416 555 l 0 555 z "},"j":{"ha":555,"x_min":0,"x_max":416,"o":"m 0 -277 l 0 -138 l 138 -138 l 138 0 l 0 0 l 0 416 l 416 416 l 416 -277 l 0 -277 m 0 555 l 0 694 l 416 694 l 416 555 l 0 555 z "},"k":{"ha":1111,"x_min":0,"x_max":972,"o":"m 694 416 l 694 555 l 277 555 l 277 416 l 694 416 m 0 0 l 0 1111 l 277 1111 l 277 833 l 138 833 l 138 694 l 972 694 l 972 416 l 833 416 l 833 277 l 972 277 l 972 0 l 694 0 l 694 277 l 277 277 l 277 0 l 0 0 z "},"l":{"ha":555,"x_min":0,"x_max":416,"o":"m 0 0 l 0 1111 l 277 1111 l 277 277 l 416 277 l 416 0 l 0 0 z "},"m":{"ha":1111,"x_min":0,"x_max":972,"o":"m 0 0 l 0 555 l 138 555 l 138 694 l 416 694 l 416 555 l 555 555 l 555 694 l 972 694 l 972 0 l 694 0 l 694 277 l 833 277 l 833 416 l 555 416 l 555 277 l 416 277 l 416 416 l 138 416 l 138 277 l 277 277 l 277 0 l 0 0 z "},"n":{"ha":1111,"x_min":0,"x_max":972,"o":"m 0 0 l 0 555 l 138 555 l 138 694 l 972 694 l 972 0 l 694 0 l 694 277 l 833 277 l 833 416 l 138 416 l 138 277 l 277 277 l 277 0 l 0 0 z "},"o":{"ha":1111,"x_min":0,"x_max":972,"o":"m 833 277 l 833 416 l 138 416 l 138 277 l 833 277 m 138 0 l 138 138 l 0 138 l 0 555 l 138 555 l 138 694 l 833 694 l 833 555 l 972 555 l 972 138 l 833 138 l 833 0 l 138 0 z "},"p":{"ha":1111,"x_min":0,"x_max":972,"o":"m 833 277 l 833 416 l 138 416 l 138 277 l 833 277 m 0 -277 l 0 694 l 833 694 l 833 555 l 972 555 l 972 0 l 416 0 l 416 -277 l 0 -277 z "},"q":{"ha":1111,"x_min":0,"x_max":972,"o":"m 833 277 l 833 416 l 138 416 l 138 277 l 833 277 m 555 -277 l 555 0 l 0 0 l 0 555 l 138 555 l 138 694 l 972 694 l 972 -277 l 555 -277 z "},"r":{"ha":1111,"x_min":0,"x_max":972,"o":"m 0 0 l 0 555 l 138 555 l 138 694 l 972 694 l 972 277 l 694 277 l 694 416 l 138 416 l 138 277 l 416 277 l 416 0 l 0 0 z "},"s":{"ha":1250,"x_min":0,"x_max":1111,"o":"m 0 0 l 0 277 l 277 277 l 277 138 l 555 138 l 555 277 l 416 277 l 416 416 l 0 416 l 0 555 l 138 555 l 138 694 l 1111 694 l 1111 416 l 833 416 l 833 555 l 555 555 l 555 416 l 694 416 l 694 277 l 1111 277 l 1111 0 l 0 0 z "},"t":{"ha":1111,"x_min":0,"x_max":972,"o":"m 277 0 l 277 555 l 0 555 l 0 833 l 277 833 l 277 1111 l 555 1111 l 555 833 l 972 833 l 972 555 l 694 555 l 694 694 l 555 694 l 555 277 l 694 277 l 694 0 l 277 0 z "},"u":{"ha":1111,"x_min":0,"x_max":972,"o":"m 0 0 l 0 694 l 277 694 l 277 416 l 138 416 l 138 277 l 833 277 l 833 416 l 555 416 l 555 694 l 972 694 l 972 138 l 833 138 l 833 0 l 0 0 z "},"v":{"ha":1111,"x_min":0,"x_max":972,"o":"m 277 0 l 277 138 l 138 138 l 138 277 l 833 277 l 833 138 l 694 138 l 694 0 l 277 0 m 0 277 l 0 694 l 277 694 l 277 416 l 138 416 l 138 277 l 0 277 m 833 277 l 833 416 l 555 416 l 555 694 l 972 694 l 972 277 l 833 277 z "},"w":{"ha":1389,"x_min":0,"x_max":1250,"o":"m 0 277 l 0 694 l 277 694 l 277 416 l 138 416 l 138 277 l 0 277 m 277 0 l 277 138 l 138 138 l 138 277 l 555 277 l 555 555 l 833 555 l 833 277 l 1111 277 l 1111 416 l 972 416 l 972 694 l 1250 694 l 1250 138 l 1111 138 l 1111 0 l 277 0 z "},"x":{"ha":1111,"x_min":0,"x_max":972,"o":"m 0 0 l 0 277 l 277 277 l 277 416 l 0 416 l 0 694 l 416 694 l 416 416 l 555 416 l 555 694 l 972 694 l 972 416 l 694 416 l 694 277 l 972 277 l 972 0 l 555 0 l 555 138 l 416 138 l 416 0 l 0 0 z "},"y":{"ha":1111,"x_min":0,"x_max":972,"o":"m 694 -138 l 694 0 l 555 0 l 555 -138 l 694 -138 m 138 -277 l 138 0 l 0 0 l 0 694 l 277 694 l 277 416 l 138 416 l 138 277 l 833 277 l 833 416 l 694 416 l 694 694 l 972 694 l 972 -277 l 138 -277 z "},"z":{"ha":1250,"x_min":0,"x_max":1111,"o":"m 0 0 l 0 277 l 416 277 l 416 416 l 833 416 l 833 555 l 277 555 l 277 416 l 0 416 l 0 694 l 1111 694 l 1111 416 l 972 416 l 972 277 l 555 277 l 555 138 l 972 138 l 972 277 l 1111 277 l 1111 0 l 0 0 z "},"|":{"ha":277,"x_min":0,"x_max":138,"o":"m 0 -138 l 0 972 l 138 972 l 138 -138 l 0 -138 z "},"~":{"ha":1111,"x_min":0,"x_max":972,"o":"m 555 277 l 555 416 l 694 416 l 694 277 l 555 277 m 0 277 l 0 555 l 277 555 l 277 277 l 0 277 m 416 416 l 416 555 l 555 555 l 555 416 l 416 416 m 277 555 l 277 694 l 416 694 l 416 555 l 277 555 m 694 416 l 694 694 l 972 694 l 972 416 l 694 416 z "},"‘":{"ha":416,"x_min":0,"x_max":277,"o":"m 0 416 l 0 833 l 138 833 l 138 694 l 277 694 l 277 416 l 0 416 z "},"’":{"ha":416,"x_min":0,"x_max":277,"o":"m 138 416 l 138 555 l 0 555 l 0 833 l 277 833 l 277 416 l 138 416 z "},"“":{"ha":833,"x_min":0,"x_max":694,"o":"m 0 416 l 0 833 l 138 833 l 138 694 l 277 694 l 277 416 l 0 416 m 416 416 l 416 833 l 555 833 l 555 694 l 694 694 l 694 416 l 416 416 z "},"”":{"ha":833,"x_min":0,"x_max":694,"o":"m 138 416 l 138 555 l 0 555 l 0 833 l 277 833 l 277 416 l 138 416 m 555 416 l 555 555 l 416 555 l 416 833 l 694 833 l 694 416 l 555 416 z "}}}
